<svg xmlns="http://www.w3.org/2000/svg" xmlns:xlink="http://www.w3.org/1999/xlink" width="735" height="566.699" viewBox="0 0 735 566.699"><defs><style>.a,.b{fill:none;}.a,.c,.d{clip-rule:evenodd;}.bb,.c{fill:#cbebe0;}.az,.d{fill:#8db1b0;}.e{clip-path:url(#a);}.f{fill:#f2f2f2;}.g{clip-path:url(#b);}.h{fill:rgba(0,0,0,0.1);}.i{clip-path:url(#c);}.j{clip-path:url(#d);}.k{clip-path:url(#e);}.l{clip-path:url(#f);}.m{fill:#afb9c4;}.n{clip-path:url(#g);}.o{clip-path:url(#h);}.p{fill:#c4ced6;}.q{opacity:0.346;}.q,.z{isolation:isolate;}.r{clip-path:url(#i);}.s{clip-path:url(#j);}.t{clip-path:url(#k);}.u{clip-path:url(#l);}.v{fill:#dce3e8;}.w{clip-path:url(#n);}.x{clip-path:url(#o);}.y{clip-path:url(#p);}.z{opacity:0.7;}.aa{clip-path:url(#q);}.ab{clip-path:url(#r);}.ac{clip-path:url(#s);}.ad{clip-path:url(#t);}.ae{clip-path:url(#v);}.af{clip-path:url(#w);}.ag{clip-path:url(#x);}.ah{clip-path:url(#y);}.ai{clip-path:url(#z);}.aj{clip-path:url(#aa);}.ak{clip-path:url(#ab);}.al{clip-path:url(#ac);}.am{clip-path:url(#ad);}.an{fill:#89d9be;}.ao{clip-path:url(#ae);}.ap{clip-path:url(#af);}.aq{clip-path:url(#ag);}.ar{clip-path:url(#ah);}.as{clip-path:url(#ai);}.at{fill:#c1dee1;}.au{clip-path:url(#aj);}.av{fill:#88c5cb;}.aw{clip-path:url(#ak);}.ax{clip-path:url(#al);}.ay{clip-path:url(#am);}.ba{clip-path:url(#an);}.bc{clip-path:url(#ao);}.bd{clip-path:url(#ap);}.be{clip-path:url(#aq);}.bf{fill:#fff;}.bg{clip-path:url(#ar);}.bh{clip-path:url(#as);}.bi{clip-path:url(#at);}</style><clipPath id="a"><path class="a" d="M711.948-531.071a41.6,41.6,0,0,0,41.6-41.6,41.6,41.6,0,0,0-41.6-41.6,41.6,41.6,0,0,0-41.6,41.6A41.6,41.6,0,0,0,711.948-531.071Z" transform="translate(-670.349 614.271)"/></clipPath><clipPath id="b"><path class="a" d="M722.7-601.561a2.355,2.355,0,0,0,2.355-2.355,2.355,2.355,0,0,0-2.355-2.355,2.355,2.355,0,0,0-2.355,2.355A2.355,2.355,0,0,0,722.7-601.561Z" transform="translate(-720.349 606.271)"/></clipPath><clipPath id="c"><path class="a" d="M680.7-559.561a2.355,2.355,0,0,0,2.355-2.355,2.355,2.355,0,0,0-2.355-2.355,2.355,2.355,0,0,0-2.355,2.355A2.355,2.355,0,0,0,680.7-559.561Z" transform="translate(-678.349 564.271)"/></clipPath><clipPath id="d"><path class="a" d="M764.7-559.561a2.355,2.355,0,0,0,2.355-2.355,2.355,2.355,0,0,0-2.355-2.355,2.355,2.355,0,0,0-2.355,2.355A2.355,2.355,0,0,0,764.7-559.561Z" transform="translate(-762.349 564.271)"/></clipPath><clipPath id="e"><path class="a" d="M722.7-517.561a2.355,2.355,0,0,0,2.355-2.355,2.355,2.355,0,0,0-2.355-2.355,2.355,2.355,0,0,0-2.355,2.355A2.355,2.355,0,0,0,722.7-517.561Z" transform="translate(-720.349 522.271)"/></clipPath><clipPath id="f"><path class="a" d="M722.918-597.271l1.57,27.472h-3.14Z" transform="translate(-721.349 597.271)"/></clipPath><clipPath id="g"><path class="a" d="M737.093-547.527l-14.43-12.21,2.22-2.22Z" transform="translate(-722.662 561.957)"/></clipPath><clipPath id="h"><path class="a" d="M722.488-558.991a3.14,3.14,0,0,0,3.14-3.14,3.14,3.14,0,0,0-3.14-3.14,3.14,3.14,0,0,0-3.14,3.14A3.14,3.14,0,0,0,722.488-558.991Z" transform="translate(-719.349 565.271)"/></clipPath><clipPath id="i"><rect class="b" width="735" height="304" transform="translate(0 0.013)"/></clipPath><clipPath id="j"><path class="a" d="M566.519-280.221c-8.253-70.436-451.036-206.386-533.238-139.67S30.106-227.967,202.37-195.9,574.771-209.785,566.519-280.221Z" transform="translate(-0.62 437.812)"/></clipPath><clipPath id="k"><path class="b" d="M0-140.522H727.6V-438H0Z" transform="translate(0 438)"/></clipPath><clipPath id="l"><path class="a" d="M244.8-215.415c7.621-59.839,416.517-175.333,492.427-118.655s56.7,175.893-102.384,203.131S237.177-155.576,244.8-215.415Z" transform="translate(-244.62 349.294)"/></clipPath><clipPath id="n"><path class="a" d="M53.641-487.418c18.423,0,33.358-7.907,33.358-17.66s-14.935-17.66-33.358-17.66-33.358,7.907-33.358,17.66S35.218-487.418,53.641-487.418Z" transform="translate(-20.283 522.738)"/></clipPath><clipPath id="o"><path class="a" d="M90.988-495.493a39.05,39.05,0,0,0-38.853-39.245,39.05,39.05,0,0,0-38.853,39.245" transform="translate(-13.283 534.738)"/></clipPath><clipPath id="p"><path class="b" d="M60.283-569.267h3.925V-722H60.283Z" transform="translate(-60.283 722)"/></clipPath><clipPath id="q"><rect class="b" width="59" height="146" transform="translate(0.253)"/></clipPath><clipPath id="r"><path class="a" d="M161.832-544.623c13.771,0,24.934-6.381,24.934-14.252s-11.163-14.252-24.934-14.252S136.9-566.747,136.9-558.875,148.061-544.623,161.832-544.623Z" transform="translate(-136.897 573.128)"/></clipPath><clipPath id="s"><path class="b" d="M131-575.223h59.653V-722H131Z" transform="translate(-131 722)"/></clipPath><clipPath id="t"><path class="a" d="M189.748-551.14c0-17.492-13-31.672-29.041-31.672s-29.041,14.18-29.041,31.672" transform="translate(-131.665 582.812)"/></clipPath><clipPath id="v"><path class="b" d="M166.665-594.7h3.924V-722h-3.924Z" transform="translate(-166.665 722)"/></clipPath><clipPath id="w"><path class="a" d="M697-421.224c10.115,10.115,19.93,16.7,21.923,14.708s-4.593-11.808-14.708-21.923-19.931-16.7-21.923-14.708S686.882-431.34,697-421.224Z" transform="translate(-681.934 443.503)"/></clipPath><clipPath id="x"><path class="a" d="M49.8-237.864a13.276,13.276,0,0,1,6.739.71c4.446,1.887,5.71,7.14,5.649,11.409-.066,4.6-1.042,9.614,2.452,13.317,1.606,1.7,3.6,3,5.181,4.738a22.4,22.4,0,0,1,3.986,6.248c1.8,4.181,2.68,9.1,1.036,13.483-1.447,3.861-5.088,7.346-4.3,11.737.821,4.58,5.438,8.082,8.325,11.493,3.267,3.861,6.276,8.8,6.77,13.858.474,4.852-1.638,9.759-4.88,13.427-6.476,7.329-16.211,10.922-26.027,10.9-4.167-.01-8.886-.2-12.482-2.438a6.878,6.878,0,0,1-2.359-2.548,8.309,8.309,0,0,0-2.281-2.283,13.54,13.54,0,0,1-4.345-5.8c-3.562-8.817-.715-19.724,4.271-27.553,1.181-1.855,2.149-3.64,1.575-5.851a22.568,22.568,0,0,0-3.373-6.373,51.267,51.267,0,0,1-3.761-5.951,13.5,13.5,0,0,1-1.164-6.977,23.733,23.733,0,0,1,5.111-12.45c2.688-3.537,5.843-6.921,5.85-11.555.008-4.911-3.276-9.28-1.877-14.274a9.515,9.515,0,0,1,3.617-5.429A14.743,14.743,0,0,1,49.8-237.864Z" transform="translate(-30.762 238)"/></clipPath><clipPath id="y"><path class="a" d="M52.85-228.077a1.132,1.132,0,0,1,1.441-.883c.811.227.8.984.774,1.659a22.3,22.3,0,0,0,.733,6.1c1.036,4.185,2.952,8.041,4.47,12.061a21.955,21.955,0,0,1,1.339,12.414c-.839,4.007-2.156,7.911-3.014,11.924-.756,3.537-1.561,7.266-.409,10.794,1.108,3.4,3.559,6.161,5.324,9.229A43.514,43.514,0,0,1,69-144.124a38.615,38.615,0,0,1-.771,10.069c-.45,1.9-1.054,4.472-2.684,5.785a1.861,1.861,0,0,1-2.669-.082c-.594-.841-.073-2.143.116-3.039a46.071,46.071,0,0,0,.785-11.785,42.552,42.552,0,0,0-1.841-11.271,38.142,38.142,0,0,0-4.8-9.379c-2.031-3.015-4.143-6.037-4.982-9.61-.853-3.629-.16-7.321.766-10.88.98-3.765,2.263-7.422,3.589-11.084a19.449,19.449,0,0,0,1.037-10.682C56.132-213.464,52.359-220.391,52.85-228.077Z" transform="translate(-51.762 229)"/></clipPath><clipPath id="z"><path class="a" d="M111.1-226.758a16.869,16.869,0,0,1,7.529,4.345c4.217,4.545,2.923,11.415.6,16.432-2.506,5.4-6.3,10.828-4.163,17.025.984,2.849,2.638,5.428,3.572,8.3a28.939,28.939,0,0,1,1.373,9.463c-.1,5.879-1.665,12.152-5.911,16.484-3.738,3.814-9.851,6.041-11.249,11.643-1.458,5.844,2.107,12.387,3.69,17.923,1.792,6.266,2.712,13.666.616,19.911-2.009,5.985-7.08,10.689-12.82,13.341-11.47,5.3-24.787,4.483-36.288-.65-4.883-2.179-10.318-4.857-13.352-9.376a8.841,8.841,0,0,1-1.42-4.241,10.668,10.668,0,0,0-1.469-3.886,17.456,17.456,0,0,1-2.029-9.122c.482-12.28,9.587-23.7,19.573-30.363,2.366-1.579,4.444-3.187,4.939-6.1.517-3.041-.109-6.269-.587-9.292a66.253,66.253,0,0,1-1.266-8.994,17.618,17.618,0,0,1,2.323-8.856A30.993,30.993,0,0,1,77.335-194.84c5.022-2.784,10.511-5.145,12.969-10.621,2.605-5.8,1.063-12.679,5.343-17.857a12.379,12.379,0,0,1,7.112-4.538C105.5-228.328,108.487-227.553,111.1-226.758Z" transform="translate(-39.762 228)"/></clipPath><clipPath id="aa"><path class="a" d="M112.3-214.364a1.443,1.443,0,0,1,2.147-.291c.829.693.414,1.582.036,2.37a29.215,29.215,0,0,0-2.339,7.613c-.98,5.5-.759,11.07-1.09,16.626s-1.67,10.836-4.936,15.4c-3.079,4.306-6.664,8.239-9.769,12.541-2.737,3.792-5.631,7.786-6.131,12.567-.482,4.6.935,9.161,1.391,13.72a57.011,57.011,0,0,1-4.4,27.333,50.458,50.458,0,0,1-6.175,11.519c-1.522,2.016-3.574,4.743-6.168,5.444-1.2.323-2.808-.1-3.078-1.5-.254-1.307,1.037-2.576,1.727-3.539a60.211,60.211,0,0,0,7.09-13.545,55.759,55.759,0,0,0,3.75-14.312,49.884,49.884,0,0,0-.7-13.624c-.8-4.635-1.682-9.32-.792-13.991.9-4.744,3.647-8.754,6.594-12.483,3.117-3.945,6.533-7.6,10-11.246a25.4,25.4,0,0,0,6.807-12.106C108.488-195.339,107.7-205.52,112.3-214.364Z" transform="translate(-71.762 215)"/></clipPath><clipPath id="ab"><path class="a" d="M18.206-182a14.936,14.936,0,0,1,11.5,5.932c3.281,4.074,3.943,9.049,5.276,13.9a12.412,12.412,0,0,0,3.8,6.456c1.817,1.493,4.124,1.792,6.3,2.521a14.7,14.7,0,0,1,9.244,9.254c1.691,5.226-.1,10.5.208,15.794.283,4.864,5.079,7.9,8.938,10.231,3.8,2.3,7.233,4.452,8.379,8.931,1.215,4.751,1.623,10.054-.06,14.747-2.8,7.814-11,11.255-18.929,11.789-7.192.484-16.235-.276-21.636-5.5-3.232-3.124-4.4-7.493-4.257-11.84a36.042,36.042,0,0,1,1.318-7.993,36.061,36.061,0,0,0,1.342-5.608c.5-5.09-4.2-6.067-8.206-7.465a19.529,19.529,0,0,1-11.128-9.8A18.671,18.671,0,0,1,8.4-144.675a16.376,16.376,0,0,1,3.725-6.554c.765-.831,1.843-1.524,2.533-2.4a3.234,3.234,0,0,0,.282-2.826c-1.027-4.411-4.225-8.063-5.369-12.465-1.033-3.974-.422-8.92,3.211-11.484A9.489,9.489,0,0,1,18.206-182Z" transform="translate(-7.762 182)"/></clipPath><clipPath id="ac"><path class="a" d="M28.382-167.5c4.9,5.223,6.236,12.31,6.628,19.179.219,3.852-.009,7.914,1.123,11.65.968,3.2,3.238,5.642,5.578,7.952,4.71,4.65,9.962,9.378,11.34,16.109.808,3.95.263,8.029,1.38,11.936a32.83,32.83,0,0,0,4.979,10.037c1.751,2.414,4.033,4.263,5.947,6.514.584.687,1.421,1.7,1.18,2.668-.282,1.136-1.729,1.5-2.755,1.317-2.393-.416-4.408-2.7-5.973-4.363a37.579,37.579,0,0,1-5.813-7.974,33.523,33.523,0,0,1-3.771-10.362c-.626-3.789-.315-7.738-1.745-11.374-2.407-6.118-8.245-9.729-12.466-14.5-5.259-5.942-4.475-13.338-3.936-20.647.3-4.017.59-8.553-1.44-12.221-.775-1.4-2.5-2.705-2.835-4.3C25.494-167.327,27.159-168.8,28.382-167.5Z" transform="translate(-25.762 168)"/></clipPath><clipPath id="ad"><path class="a" d="M35.762-58c0,29.872,4.875,45.524,30.611,45.524S96.985-28.128,96.985-58Z" transform="translate(-35.762 58)"/></clipPath><clipPath id="ae"><path class="a" d="M213.9-113h26.687a1.57,1.57,0,0,1,1.57,1.57v3.925a1.57,1.57,0,0,1-1.57,1.57H213.9a1.57,1.57,0,0,1-1.57-1.57v-3.925A1.57,1.57,0,0,1,213.9-113Z" transform="translate(-212.328 113)"/></clipPath><clipPath id="af"><path class="a" d="M223.045-186h3.584a131.616,131.616,0,0,0,5.664,34.536h5.1A12.166,12.166,0,0,1,249.561-139.3,12.166,12.166,0,0,1,237.4-127.132h-25.9A12.166,12.166,0,0,1,199.328-139.3a12.166,12.166,0,0,1,12.166-12.166h5.887A131.619,131.619,0,0,0,223.045-186Z" transform="translate(-199.328 186)"/></clipPath><clipPath id="ag"><path class="a" d="M194.956-255.682Q208.447-257,221.939-257t26.983,1.318l3.628,62.364q-15.306,1.465-30.611,1.465t-30.611-1.465Z" transform="translate(-191.328 257)"/></clipPath><clipPath id="ah"><path class="a" d="M266.44-22.37H249.958V-86.732H184.811V-22.37H168.328V-104H266.44Z" transform="translate(-168.328 104)"/></clipPath><clipPath id="ai"><path class="a" d="M731.282-281.837c6.933,16.474,18.719,27.921,24.961,45.051,3.7,10.159,5.244,21.2,5.338,32.516.051,6.145-.056,12.293-.085,18.437-.028,5.992-.191,11.946-.7,17.9-.511,5.985-1.083,11.9-1.336,17.921-.2,4.692-.286,10.15-1.877,14.43-1.265,3.4-4.479,3.9-5.333-.226a33,33,0,0,1-.362-7.216c.067-3.026.243-6.048.333-9.073.361-12.141-.107-24.284.137-36.429.239-11.867,1.764-23.72.076-35.508-1.394-9.734-4.934-18.093-9-26.106-3.915-7.71-8.176-15.232-10.821-24a42.255,42.255,0,0,1-1.629-7.837Q731.168-282.062,731.282-281.837Z" transform="translate(-730.983 282)"/></clipPath><clipPath id="aj"><path class="c" d="M728.747-240.516a13.2,13.2,0,0,1,3.068,3.872c1.154,1.779,2.511,3.385,3.664,5.165,2.406,3.711,4.519,7.651,6.712,11.513a75.4,75.4,0,0,1,8.889,23.623c1.623,8.788,2.06,17.859,2.741,26.779.722,9.454,1.449,18.976,1.545,28.466a101.653,101.653,0,0,1-.238,12.987c-.318,2.628-1.5,4.868-4.178,4.847-5.68-.045-8.347-6.336-9.461-11.5a96.878,96.878,0,0,1-1.707-23.437c.314-9.369,1.94-18.6,2.643-27.929.745-9.879.324-19.584-3.072-28.887-1.716-4.7-3.708-9.289-5.5-13.959a45.114,45.114,0,0,0-2.414-5.882A56.451,56.451,0,0,1,727.983-241Z" transform="translate(-727.983 241)"/></clipPath><clipPath id="ak"><path class="a" d="M808.589-265.594l.523-.406a51.946,51.946,0,0,1-2.1,5.762,47,47,0,0,0-1.357,5.6c-.985,4.459-2.123,8.817-3.053,13.314-1.841,8.9-1.493,18.485-.285,28.357,1.14,9.326,2.944,18.637,3.8,27.961a128.38,128.38,0,0,1,.339,23.083c-.462,5.01-1.975,10.993-6.1,10.487-1.942-.238-2.954-2.575-3.362-5.213-.655-4.237-.793-8.692-1.048-12.906-.57-9.4-.684-18.78-.8-28.088-.107-8.782-.4-17.738.187-26.3a80.6,80.6,0,0,1,4.867-22.572c1.333-3.618,2.6-7.321,4.1-10.77.718-1.654,1.6-3.116,2.314-4.769A10.2,10.2,0,0,1,808.589-265.594Z" transform="translate(-794.983 266)"/></clipPath><clipPath id="al"><path class="a" d="M731.147-205.763c.751-1.261,2.4,2.9,2.656,3.421q-.159-.39-.321-.78a34.611,34.611,0,0,1,3.7,7.9c.839,2.814,1.56,5.684,2.347,8.518,1.477,5.317,3.383,10.483,4.722,15.848a51.568,51.568,0,0,1,1.317,15.774,134.757,134.757,0,0,0-.146,16.944,49.348,49.348,0,0,0,1.652,7.764c.6,2.585,1.069,5.205,1.777,7.758.162-.333.183.779.183.864a5.36,5.36,0,0,1-.3,1.778,4.787,4.787,0,0,1-3.015,3.306c-2.713.775-5.232-1.693-6.107-4.3a71.316,71.316,0,0,1-2.545-11.8,55.638,55.638,0,0,1-.515-10.882c.321-7.2,1.625-14.315,1.977-21.517.384-7.841-1.17-15.209-2.47-22.841a66.7,66.7,0,0,0-2.445-10.825,30.419,30.419,0,0,0-1.812-3.981C731.421-203.558,730.645-204.887,731.147-205.763Z" transform="translate(-730.983 206)"/></clipPath><clipPath id="am"><path class="a" d="M757.03-228.981c-.311,8.983-.848,17.9-2.045,26.786-1.222,9.071-2.626,18.11-3.8,27.189-1.145,8.837-2.345,17.821-2.185,26.782.118,6.6-.977,17.766,6.354,21.023,7.424,3.3,9.017-10.789,9.5-15.439.934-8.921.632-17.937.178-26.907-.465-9.206-1.242-18.366-2.205-27.538-1.07-10.189-1.909-20.423-2.582-30.641-.333-5.054-.415-10.1-.323-15.155.087-4.77-.094-9.59-1.79-14.119l-.266.193" transform="translate(-748.983 257)"/></clipPath><clipPath id="an"><path class="c" d="M805.467-186.326c-1.335,1.945-2.681,3.871-3.942,5.932a31.28,31.28,0,0,0-4.91,13.057c-1.284,11.031-.254,22.944-.005,34.313.051,2.323-.243,4.576.673,6.787.83,2,2.382,3.533,3.862,3.525,3.167-.018,2.684-7.774,2.689-11.188.01-5.983-.661-12.028-.6-18.006a125.019,125.019,0,0,1,1.276-17.486,100.758,100.758,0,0,1,3.823-16.262c.233-.708,1.906-6.179.326-5.236" transform="translate(-795.983 191)"/></clipPath><clipPath id="ao"><path class="d" d="M787.177-260c-2.082,0-2.07,10.381-2.132,11.715-.226,4.812-.173,9.625-.316,14.438-.313,10.5-.7,21.1-2.276,31.48-.849,5.589-1.834,11.153-2.893,16.7-1.062,5.562-2.488,11.118-3.187,16.751-.671,5.415-.292,10.937-.2,16.378a143.352,143.352,0,0,0,.975,16.387c.177,1.34.384,2.674.606,4.006a31.76,31.76,0,0,0,.39,3.54c.5,1.689,2.652,2.241,4.1,1.977,3.919-.715,6.422-5.636,7.76-9.231a86.411,86.411,0,0,0,3.512-14.407,125.909,125.909,0,0,0,1.887-16.625c.567-11.34-.161-22.693-.973-34-.452-6.287-.974-12.546-1.773-18.793-.8-6.221-1.816-12.414-2.48-18.653-.483-4.534-.958-9.074-1.271-13.626-.075-1.085-.138-8.038-1.73-8.038" transform="translate(-775.983 260)"/></clipPath><clipPath id="ap"><path class="a" d="M781.129-189.273c-.339-10.9-4.721-58.773-5.717-71.953-.249-3.3-2.649-17.034-2.96-20.774-.844,1.057-.772,17.511-.763,21.291.01,3.74-.454,7.418-.693,11.137-.243,3.8-5.854,52.812-6.582,56.459-1.449,7.255-2.418,14.7-3.166,22.119-.729,7.23-1.861,14.859-.886,22.127a22.217,22.217,0,0,0,1.156,4.857c.624,1.661,1.051,3.2,1.552,4.935.806,2.8,2.263,5.256,4.5,6.412,4.591,2.37,7.056-2.995,8.306-7.665a124.963,124.963,0,0,0,3.878-22.87c.664-8.666,1.645-17.349,1.374-26.075" transform="translate(-759.983 282)"/></clipPath><clipPath id="aq"><path class="a" d="M726.553-123h68.286a1.57,1.57,0,0,1,1.57,1.57v68.286a1.57,1.57,0,0,1-1.57,1.57H726.553a1.57,1.57,0,0,1-1.57-1.57V-121.43A1.57,1.57,0,0,1,726.553-123Z" transform="translate(-724.983 123)"/></clipPath><clipPath id="ar"><path class="a" d="M716.553-113h4.709a1.57,1.57,0,0,1,1.57,1.57v85.554a1.57,1.57,0,0,1-1.57,1.57h-4.709a1.57,1.57,0,0,1-1.57-1.57V-111.43A1.57,1.57,0,0,1,716.553-113Z" transform="translate(-714.983 113)"/></clipPath><clipPath id="as"><path class="a" d="M766.553-113h4.709a1.57,1.57,0,0,1,1.57,1.57v85.554a1.57,1.57,0,0,1-1.57,1.57h-4.709a1.57,1.57,0,0,1-1.57-1.57V-111.43A1.57,1.57,0,0,1,766.553-113Z" transform="translate(-764.983 113)"/></clipPath><clipPath id="at"><path class="a" d="M817.553-113h4.709a1.57,1.57,0,0,1,1.57,1.57v85.554a1.57,1.57,0,0,1-1.57,1.57h-4.709a1.57,1.57,0,0,1-1.57-1.57V-111.43A1.57,1.57,0,0,1,817.553-113Z" transform="translate(-815.983 113)"/></clipPath></defs><g transform="translate(5 722)"><g class="e" transform="translate(525.082 -637.443)"><path class="f" d="M665.349-619.271H756.4v91.049H665.349Z" transform="translate(-669.273 615.346)"/></g><g class="g" transform="translate(564.328 -631.164)"><path class="h" d="M715.349-611.271h12.558v12.558H715.349Z" transform="translate(-719.273 607.346)"/></g><g class="i" transform="translate(531.361 -598.198)"><path class="h" d="M673.349-569.271h12.558v12.558H673.349Z" transform="translate(-677.273 565.346)"/></g><g class="j" transform="translate(597.293 -598.198)"><path class="h" d="M757.349-569.271h12.558v12.558H757.349Z" transform="translate(-761.273 565.346)"/></g><g class="k" transform="translate(564.328 -565.232)"><path class="h" d="M715.349-527.271h12.558v12.558H715.349Z" transform="translate(-719.273 523.346)"/></g><g class="l" transform="translate(565.113 -624.1)"><path class="m" d="M716.349-602.271h10.989v35.321H716.349Z" transform="translate(-720.273 598.346)"/></g><g class="n" transform="translate(566.145 -596.382)"><path class="m" d="M742.232-550.158l-7.77,7.77-18.87-18.87,7.77-7.77Z" transform="translate(-721.141 563.478)"/></g><g class="o" transform="translate(563.543 -598.983)"><path class="p" d="M714.349-570.271h14.128v14.128H714.349Z" transform="translate(-718.273 566.346)"/></g><g class="q" transform="translate(-5 -503.012)"><g class="r"><g class="s" transform="translate(4.411 4.072)"><g class="t" transform="translate(-0.487 -0.148)"><path class="f" d="M-4.38-182.649H569.615V-442.812H-4.38Z" transform="translate(0.942 439.035)"/></g></g><g class="u" transform="translate(195.927 73.55)"><g class="t" transform="translate(-192.003 -69.625)"><path class="v" d="M239.62-354.294H783v233.651H239.62Z" transform="translate(-51.542 419.995)"/></g></g></g></g><g class="w" transform="translate(14.845 -565.599)"><path class="f" d="M15.283-527.738H89.849v43.17H15.283Z" transform="translate(-19.208 523.814)"/></g><g class="x" transform="translate(9.35 -575.018)"><path class="v" d="M8.283-539.738H93.837v47.094H8.283Z" transform="translate(-12.208 535.814)"/></g><g class="y" transform="translate(46.241 -722)"><path class="v" d="M55.283-727H67.057v160.582H55.283Z" transform="translate(-59.208 723.076)"/></g><g class="z" transform="translate(101.747 -722)"><g class="aa"><g class="ab" transform="translate(4.629 116.85)"><g class="ac" transform="translate(-4.629 -116.85)"><path class="f" d="M131.9-578.128h57.718v36.353H131.9Z" transform="translate(-131.193 691.053)"/></g></g><g class="ad" transform="translate(0.522 109.249)"><g class="ac" transform="translate(-0.522 -109.249)"><path class="v" d="M126.665-587.812H192.6v39.521H126.665Z" transform="translate(-130.068 693.136)"/></g></g><g class="ae" transform="translate(27.993)"><path class="v" d="M161.665-727h11.774v135.151H161.665Z" transform="translate(-165.589 723.076)"/></g></g></g><g class="af" transform="translate(534.176 -503.407)"><path class="f" d="M683.485-454.717l42.181,42.181L712.9-399.771,670.72-441.952Z" transform="translate(-679.522 445.915)"/></g><g class="ag" transform="translate(23.07 -342.107)"><path class="v" d="M25.762-243H88.554v119.305H25.762Z" transform="translate(-29.687 239.076)"/></g><g class="ah" transform="translate(39.553 -335.043)"><path class="p" d="M46.762-234H71.879v109.1H46.762Z" transform="translate(-50.687 230.076)"/></g><g class="ai" transform="translate(30.134 -334.258)"><path class="v" d="M34.762-233h89.479V-85.438H34.762Z" transform="translate(-38.687 229.075)"/></g><g class="aj" transform="translate(55.251 -324.055)"><path class="p" d="M66.762-220h51.019V-86.567H66.762Z" transform="translate(-70.687 216.076)"/></g><g class="ak" transform="translate(5.017 -298.153)"><path class="p" d="M2.762-187h73V-79.468h-73Z" transform="translate(-6.687 183.075)"/></g><g class="al" transform="translate(19.145 -287.164)"><path class="m" d="M20.762-173H69.426v95.758H20.762Z" transform="translate(-24.687 169.075)"/></g><g class="am" transform="translate(26.994 -200.825)"><path class="an" d="M30.762-63H99.834V-9.627H30.762Z" transform="translate(-34.687 59.075)"/></g><g class="ao" transform="translate(165.581 -243.995)"><path class="m" d="M207.328-118H245v14.913H207.328Z" transform="translate(-211.252 114.075)"/></g><g class="ap" transform="translate(155.377 -301.293)"><path class="v" d="M194.328-191H252.41v66.717H194.328Z" transform="translate(-198.252 187.075)"/></g><g class="aq" transform="translate(149.098 -357.021)"><path class="p" d="M186.328-262H255.4v73H186.328Z" transform="translate(-190.252 258.076)"/></g><g class="ar" transform="translate(131.045 -236.931)"><path class="f" d="M163.328-109H269.289v89.479H163.328Z" transform="translate(-167.252 105.075)"/></g><g class="as" transform="translate(572.675 -376.643)"><path class="at" d="M725.983-287h38.46v156.98h-38.46Z" transform="translate(-729.908 283.076)"/></g><g class="au" transform="translate(570.32 -344.462)"><path class="av" d="M722.983-246H758.3v125.584H722.983Z" transform="translate(-726.908 242.076)"/></g><g class="aw" transform="translate(622.908 -364.085)"><path class="at" d="M789.983-271H811.96v122.445H789.983Z" transform="translate(-793.908 267.076)"/></g><g class="ax" transform="translate(572.675 -316.991)"><path class="at" d="M725.983-211h25.9v97.328h-25.9Z" transform="translate(-729.908 207.076)"/></g><g class="ay" transform="translate(586.803 -357.021)"><path class="az" d="M743.983-262h24.332v138.143H743.983Z" transform="translate(-747.908 258.076)"/></g><g class="ba" transform="translate(623.693 -305.217)"><path class="bb" d="M790.983-196h21.192v76.136H790.983Z" transform="translate(-794.908 192.076)"/></g><g class="bc" transform="translate(607.995 -359.375)"><path class="az" d="M770.983-265h27.472v141.282H770.983Z" transform="translate(-774.908 261.076)"/></g><g class="bd" transform="translate(595.437 -376.643)"><path class="bb" d="M754.983-287h29.041v157.765H754.983Z" transform="translate(-758.908 283.076)"/></g><g class="be" transform="translate(567.965 -251.844)"><path class="bf" d="M719.983-128h79.275v79.275H719.983Z" transform="translate(-723.908 124.075)"/></g><g class="bg" transform="translate(560.116 -243.995)"><path class="p" d="M709.983-118h15.7v96.543h-15.7Z" transform="translate(-713.908 114.075)"/></g><g class="bh" transform="translate(599.361 -243.995)"><path class="p" d="M759.983-118h15.7v96.543h-15.7Z" transform="translate(-763.908 114.075)"/></g><g class="bi" transform="translate(639.391 -243.995)"><path class="p" d="M810.983-118h15.7v96.543h-15.7Z" transform="translate(-814.908 114.075)"/></g></g></svg>